<svg width="48" height="10" viewBox="0 0 48 10" fill="none" xmlns="http://www.w3.org/2000/svg">
<path d="M3.70442 0.0142448L5.14276 9.98575H3.41946L3.22949 8.44729H1.8997L1.69616 9.98575H0L1.42478 0.0142448H3.70442ZM3.05309 6.85185L2.5646 2.66382L2.10324 6.85185H3.05309Z" fill="#FAFAFA"/>
<path d="M6.8121 0C7.24632 0 7.62174 0.0854701 7.93836 0.25641C8.25497 0.427351 8.52636 0.655271 8.75251 0.940171C8.97867 1.22507 9.16411 1.55746 9.30885 1.93732C9.45359 2.30769 9.56667 2.69231 9.64809 3.09117C9.7295 3.49003 9.78378 3.89364 9.81092 4.30199C9.8471 4.70085 9.8652 5.07123 9.8652 5.41311C9.8652 6.17284 9.7883 6.81387 9.63452 7.33618C9.48978 7.8585 9.29981 8.28585 9.06461 8.61823C8.83845 8.95062 8.59873 9.21178 8.34543 9.40171C7.89312 9.73409 7.38201 9.92403 6.8121 9.97151H5.14308L5.17022 0H6.8121ZM6.83924 8.46154C6.83924 8.46154 6.8709 8.45679 6.93423 8.44729C6.99755 8.4378 7.07897 8.40456 7.17847 8.34758C7.28703 8.2811 7.40011 8.18139 7.51771 8.04843C7.64435 7.91548 7.75743 7.72555 7.85694 7.47863C7.96549 7.23172 8.05143 6.92308 8.11476 6.55271C8.18713 6.17284 8.22331 5.7075 8.22331 5.1567C8.22331 5.01425 8.21879 4.82906 8.20974 4.60114C8.2007 4.37322 8.17808 4.13105 8.1419 3.87464C8.11476 3.61823 8.06952 3.36182 8.0062 3.10541C7.94288 2.849 7.85694 2.61633 7.74838 2.40741C7.64888 2.19848 7.52223 2.03229 7.36844 1.90883C7.21466 1.77588 7.02921 1.7094 6.8121 1.7094L6.83924 8.46154Z" fill="#FAFAFA"/>
<path d="M12.0647 0.0142448L12.8246 6.02564L13.6252 0.0142448H15.3349L13.8287 9.98575H11.8204L10.3007 0.0142448H12.0647Z" fill="#FAFAFA"/>
<path d="M15.4422 9.98575V0.0142448H18.631V1.78063H17.1926V4.03134H18.6445V5.88319H17.1112V8.1339H18.6581V9.98575H15.4422Z" fill="#FAFAFA"/>
<path d="M19.1778 9.98575V0.0142448H20.8739L22.3258 5.17094V0.0142448H24.0627V9.98575H22.3258L20.8604 5.22792V10L19.1778 9.98575Z" fill="#FAFAFA"/>
<path d="M29.7848 0.0142448V1.82336H28.0751V9.98575H26.4061V1.82336H24.5742V0.0142448H29.7848Z" fill="#FAFAFA"/>
<path d="M35.6911 5.05698C35.6911 5.38936 35.6865 5.74549 35.6775 6.12536C35.6775 6.49573 35.6549 6.8661 35.6096 7.23647C35.5735 7.59734 35.5056 7.94397 35.4061 8.27635C35.3066 8.60874 35.1573 8.90313 34.9583 9.15954C34.7683 9.40646 34.5196 9.60589 34.212 9.75783C33.9044 9.90978 33.5245 9.98575 33.0722 9.98575C32.448 9.98575 31.9595 9.87179 31.6067 9.64387C31.2629 9.41595 31.0051 9.09307 30.8333 8.67521C30.6704 8.24786 30.5709 7.73504 30.5347 7.13675C30.5076 6.53846 30.494 5.87369 30.494 5.14245V0H32.163V5.05698C32.1721 5.64577 32.2083 6.16809 32.2716 6.62393C32.2987 6.82336 32.3349 7.01804 32.3801 7.20798C32.4254 7.38841 32.4797 7.55461 32.543 7.70655C32.6154 7.849 32.6922 7.96771 32.7737 8.06268C32.8641 8.14815 32.9636 8.19088 33.0722 8.19088C33.2079 8.19088 33.321 8.14815 33.4114 8.06268C33.5109 7.96771 33.5923 7.849 33.6557 7.70655C33.728 7.55461 33.7823 7.38841 33.8185 7.20798C33.8637 7.01804 33.8999 6.82336 33.9271 6.62393C33.9813 6.16809 34.0039 5.64577 33.9949 5.05698V0.0142448H35.6911V5.05698Z" fill="#FAFAFA"/>
<path d="M38.04 0.0142448C38.3567 0.0142448 38.6552 0.0664767 38.9356 0.170941C39.2251 0.275404 39.4829 0.441595 39.7091 0.669516C39.9352 0.887939 40.1207 1.17284 40.2654 1.52422C40.4192 1.87559 40.5187 2.30294 40.5639 2.80627C40.6272 3.42355 40.6091 3.94112 40.5096 4.35897C40.4192 4.76733 40.3061 5.09497 40.1704 5.34188C40.0166 5.64577 39.8312 5.88319 39.6141 6.05413L40.7403 9.98575H39.0035L38.1757 6.63818L37.7958 6.7094V9.98575H36.0861L36.0996 0.0142448H38.04ZM37.7958 4.94302C38.0038 4.92403 38.1757 4.8718 38.3114 4.78632C38.4471 4.69136 38.5602 4.57265 38.6507 4.4302C38.7411 4.28775 38.8044 4.12631 38.8406 3.94587C38.8768 3.76543 38.8949 3.58025 38.8949 3.39031C38.8949 3.19088 38.8768 2.9962 38.8406 2.80627C38.8044 2.60684 38.7456 2.43115 38.6642 2.2792C38.5828 2.11776 38.4697 1.98955 38.325 1.89459C38.1893 1.79962 38.0129 1.75214 37.7958 1.75214V4.94302Z" fill="#FAFAFA"/>
<path d="M40.275 9.98575V0.0142448H43.4638V1.78063H42.0255V4.03134H43.4774V5.88319H41.9441V8.1339H43.491V9.98575H40.275Z" fill="#FAFAFA"/>
<path d="M47.9322 0.0142448C47.9412 0.0142448 47.9457 0.109212 47.9457 0.299146C47.9457 0.479582 47.9457 0.679013 47.9457 0.897436C47.9457 1.16334 47.9412 1.46249 47.9322 1.79487C47.6517 1.79487 47.3668 1.82336 47.0773 1.88034C46.7969 1.92783 46.5436 2.00855 46.3174 2.12251C46.1003 2.22697 45.9194 2.35518 45.7746 2.50712C45.6389 2.65907 45.5711 2.83476 45.5711 3.03419C45.5711 3.20513 45.6299 3.35233 45.7475 3.47578C45.8741 3.59924 46.0234 3.7227 46.1953 3.84615C46.3762 3.96961 46.5707 4.10731 46.7788 4.25926C46.9959 4.40171 47.1904 4.57265 47.3622 4.77208C47.5432 4.97151 47.6924 5.21368 47.81 5.49858C47.9367 5.78348 48 6.1301 48 6.53846C48 7.14625 47.8914 7.66857 47.6743 8.10541C47.4663 8.53276 47.1768 8.88889 46.8059 9.17379C46.4441 9.44919 46.0189 9.65337 45.5304 9.78632C45.0419 9.91928 44.5263 9.98575 43.9835 9.98575V8.20513C44.1463 8.20513 44.3589 8.17664 44.6212 8.11966C44.8836 8.06268 45.1369 7.96771 45.3811 7.83476C45.6344 7.7018 45.8515 7.52612 46.0325 7.30769C46.2134 7.08927 46.2993 6.81861 46.2903 6.49573C46.2903 6.33428 46.2315 6.19658 46.1139 6.08262C45.9963 5.95916 45.847 5.84046 45.6661 5.7265C45.4942 5.60304 45.3088 5.47483 45.1097 5.34188C44.9107 5.19943 44.7208 5.02849 44.5398 4.82906C44.368 4.62013 44.2232 4.37322 44.1056 4.08832C43.9971 3.80342 43.9428 3.45204 43.9428 3.03419C43.9428 2.59734 44.0604 2.19373 44.2956 1.82336C44.5398 1.45299 44.8519 1.13485 45.2319 0.868946C45.6118 0.603039 46.037 0.394112 46.5074 0.242166C46.9868 0.0902184 47.4618 0.0142448 47.9322 0.0142448Z" fill="#FAFAFA"/>
</svg>
