<svg width="98" height="15" viewBox="0 0 98 15" fill="none" xmlns="http://www.w3.org/2000/svg">
<path d="M0 0H47V15H0V0Z" fill="#ED1D24"/>
<path d="M2 12.9858V3.01424H4.21533L5.01838 8.14245L5.80759 3.01424H8.06446V13H6.26451V8.18519L5.4753 12.9858H4.54763L3.75842 8.22792V12.9858H2Z" fill="#FAFAFA"/>
<path d="M11.9704 3.01424L13.438 12.9858H11.6796L11.4858 11.4473H10.1289L9.9212 12.9858H8.19048L9.64429 3.01424H11.9704ZM11.3058 9.85185L10.8073 5.66382L10.3366 9.85185H11.3058Z" fill="#FAFAFA"/>
<path d="M15.4875 3.01424C15.8106 3.01424 16.1152 3.06648 16.4014 3.17094C16.6967 3.2754 16.9598 3.4416 17.1906 3.66952C17.4213 3.88794 17.6106 4.17284 17.7582 4.52422C17.9152 4.87559 18.0167 5.30294 18.0629 5.80627C18.1275 6.42355 18.109 6.94112 18.0075 7.35897C17.9152 7.76733 17.7998 8.09497 17.6613 8.34188C17.5044 8.64577 17.3152 8.88319 17.0937 9.05413L18.2429 12.9858H16.4706L15.626 9.63818L15.2383 9.7094V12.9858H13.4937L13.5076 3.01424H15.4875ZM15.2383 7.94302C15.4506 7.92403 15.626 7.8718 15.7645 7.78632C15.9029 7.69136 16.0183 7.57265 16.1106 7.4302C16.2029 7.28775 16.2675 7.12631 16.3044 6.94587C16.3414 6.76543 16.3598 6.58025 16.3598 6.39031C16.3598 6.19088 16.3414 5.9962 16.3044 5.80627C16.2675 5.60684 16.2075 5.43115 16.1244 5.2792C16.0414 5.11776 15.926 4.98955 15.7783 4.89459C15.6398 4.79962 15.4598 4.75214 15.2383 4.75214V7.94302Z" fill="#FAFAFA"/>
<path d="M19.568 3.01424L20.3434 9.02564L21.1603 3.01424H22.9049L21.368 12.9858H19.3188L17.7681 3.01424H19.568Z" fill="#FAFAFA"/>
<path d="M23.0144 12.9858V3.01424H26.2681V4.78063H24.8005V7.03134H26.282V8.88319H24.7174V11.1339H26.2958V12.9858H23.0144Z" fill="#FAFAFA"/>
<path d="M28.5568 3V11.1909H30.0521V13H26.8399V3.01424L28.5568 3Z" fill="#FAFAFA"/>
<path d="M30.4775 8C30.4775 7.24976 30.5421 6.57075 30.6713 5.96296C30.8005 5.34568 30.9805 4.81861 31.2113 4.38177C31.442 3.94492 31.7236 3.60779 32.0559 3.37037C32.3882 3.13295 32.7528 3.01424 33.1497 3.01424C33.5466 3.01424 33.9066 3.13295 34.2297 3.37037C34.562 3.60779 34.8435 3.94492 35.0743 4.38177C35.305 4.81861 35.485 5.34568 35.6142 5.96296C35.7435 6.57075 35.8081 7.24976 35.8081 8C35.8081 8.75024 35.7435 9.434 35.6142 10.0513C35.485 10.6591 35.305 11.1814 35.0743 11.6182C34.8435 12.0551 34.562 12.3922 34.2297 12.6296C33.9066 12.867 33.5466 12.9858 33.1497 12.9858C32.7528 12.9858 32.3882 12.867 32.0559 12.6296C31.7236 12.3922 31.442 12.0551 31.2113 11.6182C30.9805 11.1814 30.8005 10.6591 30.6713 10.0513C30.5421 9.434 30.4775 8.75024 30.4775 8ZM32.1943 8.02849C32.1943 8.50332 32.2174 8.93542 32.2636 9.32479C32.3097 9.71415 32.3743 10.0513 32.4574 10.3362C32.5405 10.6116 32.6374 10.8253 32.7482 10.9772C32.8682 11.1292 32.9974 11.2051 33.1358 11.2051C33.2743 11.2051 33.3989 11.1292 33.5097 10.9772C33.6297 10.8253 33.7266 10.6116 33.8004 10.3362C33.8835 10.0513 33.9481 9.71415 33.9943 9.32479C34.0404 8.93542 34.0635 8.50332 34.0635 8.02849C34.0635 7.55366 34.0404 7.12156 33.9943 6.73219C33.9481 6.33333 33.8835 5.9962 33.8004 5.7208C33.7266 5.44539 33.6297 5.23172 33.5097 5.07977C33.3989 4.92783 33.2743 4.85185 33.1358 4.85185C32.9974 4.85185 32.8682 4.92783 32.7482 5.07977C32.6374 5.23172 32.5405 5.44539 32.4574 5.7208C32.3743 5.9962 32.3097 6.33333 32.2636 6.73219C32.2174 7.12156 32.1943 7.55366 32.1943 8.02849Z" fill="#FAFAFA"/>
<path d="M41.5124 8.05698C41.5124 8.38936 41.5078 8.74549 41.4986 9.12536C41.4986 9.49573 41.4755 9.8661 41.4294 10.2365C41.3924 10.5973 41.3232 10.944 41.2217 11.2764C41.1202 11.6087 40.9678 11.9031 40.7648 12.1595C40.5709 12.4065 40.3171 12.6059 40.0033 12.7578C39.6894 12.9098 39.3017 12.9858 38.8402 12.9858C38.2033 12.9858 37.7049 12.8718 37.3449 12.6439C36.9941 12.416 36.731 12.0931 36.5557 11.6752C36.3895 11.2479 36.288 10.735 36.251 10.1368C36.2234 9.53846 36.2095 8.87369 36.2095 8.14245V3H37.9125V8.05698C37.9218 8.64577 37.9587 9.16809 38.0233 9.62393C38.051 9.82336 38.0879 10.018 38.1341 10.208C38.1802 10.3884 38.2356 10.5546 38.3002 10.7066C38.3741 10.849 38.4525 10.9677 38.5356 11.0627C38.6279 11.1481 38.7294 11.1909 38.8402 11.1909C38.9787 11.1909 39.0941 11.1481 39.1864 11.0627C39.2879 10.9677 39.371 10.849 39.4356 10.7066C39.5094 10.5546 39.5648 10.3884 39.6017 10.208C39.6479 10.018 39.6848 9.82336 39.7125 9.62393C39.7679 9.16809 39.791 8.64577 39.7817 8.05698V3.01424H41.5124V8.05698Z" fill="#FAFAFA"/>
<path d="M45.9308 3.01424C45.94 3.01424 45.9446 3.10921 45.9446 3.29915C45.9446 3.47958 45.9446 3.67901 45.9446 3.89744C45.9446 4.16334 45.94 4.46249 45.9308 4.79487C45.6446 4.79487 45.3539 4.82336 45.0585 4.88034C44.7723 4.92783 44.5139 5.00855 44.2831 5.12251C44.0616 5.22697 43.877 5.35518 43.7293 5.50712C43.5908 5.65907 43.5216 5.83476 43.5216 6.03419C43.5216 6.20513 43.5816 6.35233 43.7016 6.47578C43.8308 6.59924 43.9831 6.7227 44.1585 6.84615C44.3431 6.96961 44.5416 7.10731 44.7539 7.25926C44.9754 7.40171 45.1739 7.57265 45.3492 7.77208C45.5339 7.97151 45.6862 8.21368 45.8062 8.49858C45.9354 8.78348 46 9.1301 46 9.53846C46 10.1462 45.8892 10.6686 45.6677 11.1054C45.4554 11.5328 45.16 11.8889 44.7816 12.1738C44.4123 12.4492 43.9785 12.6534 43.4801 12.7863C42.9816 12.9193 42.4555 12.9858 41.9016 12.9858V11.2051C42.0678 11.2051 42.2847 11.1766 42.5524 11.1197C42.8201 11.0627 43.0785 10.9677 43.3278 10.8348C43.5862 10.7018 43.8078 10.5261 43.9924 10.3077C44.177 10.0893 44.2647 9.81861 44.2554 9.49573C44.2554 9.33428 44.1954 9.19658 44.0754 9.08262C43.9554 8.95916 43.8031 8.84046 43.6185 8.7265C43.4431 8.60304 43.2539 8.47483 43.0508 8.34188C42.8478 8.19943 42.6539 8.02849 42.4693 7.82906C42.2939 7.62013 42.1463 7.37322 42.0263 7.08832C41.9155 6.80342 41.8601 6.45204 41.8601 6.03419C41.8601 5.59734 41.9801 5.19373 42.2201 4.82336C42.4693 4.45299 42.7878 4.13485 43.1755 3.86895C43.5631 3.60304 43.997 3.39411 44.477 3.24217C44.9662 3.09022 45.4508 3.01424 45.9308 3.01424Z" fill="#FAFAFA"/>
<path d="M53.7044 3.01424L55.1428 12.9858H53.4195L53.2295 11.4473H51.8997L51.6962 12.9858H50L51.4248 3.01424H53.7044ZM53.0531 9.85185L52.5646 5.66382L52.1032 9.85185H53.0531Z" fill="#FAFAFA"/>
<path d="M56.8121 3C57.2463 3 57.6217 3.08547 57.9384 3.25641C58.255 3.42735 58.5264 3.65527 58.7525 3.94017C58.9787 4.22507 59.1641 4.55746 59.3089 4.93732C59.4536 5.30769 59.5667 5.69231 59.6481 6.09117C59.7295 6.49003 59.7838 6.89364 59.8109 7.30199C59.8471 7.70085 59.8652 8.07123 59.8652 8.41311C59.8652 9.17284 59.7883 9.81387 59.6345 10.3362C59.4898 10.8585 59.2998 11.2858 59.0646 11.6182C58.8385 11.9506 58.5987 12.2118 58.3454 12.4017C57.8931 12.7341 57.382 12.924 56.8121 12.9715H55.1431L55.1702 3H56.8121ZM56.8392 11.4615C56.8392 11.4615 56.8709 11.4568 56.9342 11.4473C56.9976 11.4378 57.079 11.4046 57.1785 11.3476C57.287 11.2811 57.4001 11.1814 57.5177 11.0484C57.6444 10.9155 57.7574 10.7255 57.8569 10.4786C57.9655 10.2317 58.0514 9.92308 58.1148 9.55271C58.1871 9.17284 58.2233 8.7075 58.2233 8.1567C58.2233 8.01425 58.2188 7.82906 58.2097 7.60114C58.2007 7.37322 58.1781 7.13105 58.1419 6.87464C58.1148 6.61823 58.0695 6.36182 58.0062 6.10541C57.9429 5.849 57.8569 5.61633 57.7484 5.40741C57.6489 5.19848 57.5222 5.03229 57.3684 4.90883C57.2147 4.77588 57.0292 4.7094 56.8121 4.7094L56.8392 11.4615Z" fill="#FAFAFA"/>
<path d="M62.0647 3.01424L62.8246 9.02564L63.6252 3.01424H65.3349L63.8287 12.9858H61.8204L60.3007 3.01424H62.0647Z" fill="#FAFAFA"/>
<path d="M65.4422 12.9858V3.01424H68.631V4.78063H67.1926V7.03134H68.6445V8.88319H67.1112V11.1339H68.6581V12.9858H65.4422Z" fill="#FAFAFA"/>
<path d="M69.1778 12.9858V3.01424H70.8739L72.3258 8.17094V3.01424H74.0627V12.9858H72.3258L70.8604 8.22792V13L69.1778 12.9858Z" fill="#FAFAFA"/>
<path d="M79.7848 3.01424V4.82336H78.0751V12.9858H76.4061V4.82336H74.5742V3.01424H79.7848Z" fill="#FAFAFA"/>
<path d="M85.6911 8.05698C85.6911 8.38936 85.6865 8.74549 85.6775 9.12536C85.6775 9.49573 85.6549 9.8661 85.6096 10.2365C85.5735 10.5973 85.5056 10.944 85.4061 11.2764C85.3066 11.6087 85.1573 11.9031 84.9583 12.1595C84.7683 12.4065 84.5196 12.6059 84.212 12.7578C83.9044 12.9098 83.5245 12.9858 83.0722 12.9858C82.448 12.9858 81.9595 12.8718 81.6067 12.6439C81.2629 12.416 81.0051 12.0931 80.8333 11.6752C80.6704 11.2479 80.5709 10.735 80.5347 10.1368C80.5076 9.53846 80.494 8.87369 80.494 8.14245V3H82.163V8.05698C82.1721 8.64577 82.2083 9.16809 82.2716 9.62393C82.2987 9.82336 82.3349 10.018 82.3801 10.208C82.4254 10.3884 82.4797 10.5546 82.543 10.7066C82.6154 10.849 82.6922 10.9677 82.7737 11.0627C82.8641 11.1481 82.9636 11.1909 83.0722 11.1909C83.2079 11.1909 83.321 11.1481 83.4114 11.0627C83.5109 10.9677 83.5923 10.849 83.6557 10.7066C83.728 10.5546 83.7823 10.3884 83.8185 10.208C83.8637 10.018 83.8999 9.82336 83.9271 9.62393C83.9813 9.16809 84.0039 8.64577 83.9949 8.05698V3.01424H85.6911V8.05698Z" fill="#FAFAFA"/>
<path d="M88.04 3.01424C88.3567 3.01424 88.6552 3.06648 88.9356 3.17094C89.2251 3.2754 89.4829 3.4416 89.7091 3.66952C89.9352 3.88794 90.1207 4.17284 90.2654 4.52422C90.4192 4.87559 90.5187 5.30294 90.5639 5.80627C90.6272 6.42355 90.6091 6.94112 90.5096 7.35897C90.4192 7.76733 90.3061 8.09497 90.1704 8.34188C90.0166 8.64577 89.8312 8.88319 89.6141 9.05413L90.7403 12.9858H89.0035L88.1757 9.63818L87.7958 9.7094V12.9858H86.0861L86.0996 3.01424H88.04ZM87.7958 7.94302C88.0038 7.92403 88.1757 7.8718 88.3114 7.78632C88.4471 7.69136 88.5602 7.57265 88.6507 7.4302C88.7411 7.28775 88.8044 7.12631 88.8406 6.94587C88.8768 6.76543 88.8949 6.58025 88.8949 6.39031C88.8949 6.19088 88.8768 5.9962 88.8406 5.80627C88.8044 5.60684 88.7456 5.43115 88.6642 5.2792C88.5828 5.11776 88.4697 4.98955 88.325 4.89459C88.1893 4.79962 88.0129 4.75214 87.7958 4.75214V7.94302Z" fill="#FAFAFA"/>
<path d="M90.275 12.9858V3.01424H93.4638V4.78063H92.0255V7.03134H93.4774V8.88319H91.9441V11.1339H93.491V12.9858H90.275Z" fill="#FAFAFA"/>
<path d="M97.9322 3.01424C97.9412 3.01424 97.9457 3.10921 97.9457 3.29915C97.9457 3.47958 97.9457 3.67901 97.9457 3.89744C97.9457 4.16334 97.9412 4.46249 97.9322 4.79487C97.6517 4.79487 97.3668 4.82336 97.0773 4.88034C96.7969 4.92783 96.5436 5.00855 96.3174 5.12251C96.1003 5.22697 95.9194 5.35518 95.7746 5.50712C95.6389 5.65907 95.5711 5.83476 95.5711 6.03419C95.5711 6.20513 95.6299 6.35233 95.7475 6.47578C95.8741 6.59924 96.0234 6.7227 96.1953 6.84615C96.3762 6.96961 96.5707 7.10731 96.7788 7.25926C96.9959 7.40171 97.1904 7.57265 97.3622 7.77208C97.5432 7.97151 97.6924 8.21368 97.81 8.49858C97.9367 8.78348 98 9.1301 98 9.53846C98 10.1462 97.8914 10.6686 97.6743 11.1054C97.4663 11.5328 97.1768 11.8889 96.8059 12.1738C96.4441 12.4492 96.0189 12.6534 95.5304 12.7863C95.0419 12.9193 94.5263 12.9858 93.9835 12.9858V11.2051C94.1463 11.2051 94.3589 11.1766 94.6212 11.1197C94.8836 11.0627 95.1369 10.9677 95.3811 10.8348C95.6344 10.7018 95.8515 10.5261 96.0325 10.3077C96.2134 10.0893 96.2993 9.81861 96.2903 9.49573C96.2903 9.33428 96.2315 9.19658 96.1139 9.08262C95.9963 8.95916 95.847 8.84046 95.6661 8.7265C95.4942 8.60304 95.3088 8.47483 95.1097 8.34188C94.9107 8.19943 94.7208 8.02849 94.5398 7.82906C94.368 7.62013 94.2232 7.37322 94.1056 7.08832C93.9971 6.80342 93.9428 6.45204 93.9428 6.03419C93.9428 5.59734 94.0604 5.19373 94.2956 4.82336C94.5398 4.45299 94.8519 4.13485 95.2319 3.86895C95.6118 3.60304 96.037 3.39411 96.5074 3.24217C96.9868 3.09022 97.4618 3.01424 97.9322 3.01424Z" fill="#FAFAFA"/>
<path fill-rule="evenodd" clip-rule="evenodd" d="M97 1H51V0H97V1Z" fill="#FAFAFA"/>
<path fill-rule="evenodd" clip-rule="evenodd" d="M97 15H51V14H97V15Z" fill="#FAFAFA"/>
</svg>
