<svg width="44" height="10" viewBox="0 0 44 10" fill="none" xmlns="http://www.w3.org/2000/svg">
<path d="M0 9.98575V0.0142448H2.21533L3.01838 5.14245L3.80759 0.0142448H6.06446V10H4.26451V5.18519L3.4753 9.98575H2.54763L1.75842 5.22792V9.98575H0Z" fill="#FAFAFA"/>
<path d="M9.97038 0.0142448L11.438 9.98575H9.67962L9.48578 8.44729H8.12889L7.9212 9.98575H6.19048L7.64429 0.0142448H9.97038ZM9.30578 6.85185L8.80733 2.66382L8.33658 6.85185H9.30578Z" fill="#FAFAFA"/>
<path d="M13.4875 0.0142448C13.8106 0.0142448 14.1152 0.0664767 14.4014 0.170941C14.6967 0.275404 14.9598 0.441595 15.1906 0.669516C15.4213 0.887939 15.6106 1.17284 15.7582 1.52422C15.9152 1.87559 16.0167 2.30294 16.0629 2.80627C16.1275 3.42355 16.109 3.94112 16.0075 4.35897C15.9152 4.76733 15.7998 5.09497 15.6613 5.34188C15.5044 5.64577 15.3152 5.88319 15.0937 6.05413L16.2429 9.98575H14.4706L13.626 6.63818L13.2383 6.7094V9.98575H11.4937L11.5076 0.0142448H13.4875ZM13.2383 4.94302C13.4506 4.92403 13.626 4.8718 13.7645 4.78632C13.9029 4.69136 14.0183 4.57265 14.1106 4.4302C14.2029 4.28775 14.2675 4.12631 14.3044 3.94587C14.3414 3.76543 14.3598 3.58025 14.3598 3.39031C14.3598 3.19088 14.3414 2.9962 14.3044 2.80627C14.2675 2.60684 14.2075 2.43115 14.1244 2.2792C14.0414 2.11776 13.926 1.98955 13.7783 1.89459C13.6398 1.79962 13.4598 1.75214 13.2383 1.75214V4.94302Z" fill="#FAFAFA"/>
<path d="M17.568 0.0142448L18.3434 6.02564L19.1603 0.0142448H20.9049L19.368 9.98575H17.3188L15.7681 0.0142448H17.568Z" fill="#FAFAFA"/>
<path d="M21.0144 9.98575V0.0142448H24.2681V1.78063H22.8005V4.03134H24.282V5.88319H22.7174V8.1339H24.2958V9.98575H21.0144Z" fill="#FAFAFA"/>
<path d="M26.5568 0V8.19088H28.0521V10H24.8399V0.0142448L26.5568 0Z" fill="#FAFAFA"/>
<path d="M28.4775 5C28.4775 4.24976 28.5421 3.57075 28.6713 2.96296C28.8005 2.34568 28.9805 1.81861 29.2113 1.38177C29.442 0.944919 29.7236 0.607787 30.0559 0.370371C30.3882 0.132953 30.7528 0.0142448 31.1497 0.0142448C31.5466 0.0142448 31.9066 0.132953 32.2297 0.370371C32.562 0.607787 32.8435 0.944919 33.0743 1.38177C33.305 1.81861 33.485 2.34568 33.6142 2.96296C33.7435 3.57075 33.8081 4.24976 33.8081 5C33.8081 5.75024 33.7435 6.434 33.6142 7.05128C33.485 7.65907 33.305 8.18139 33.0743 8.61823C32.8435 9.05508 32.562 9.39221 32.2297 9.62963C31.9066 9.86705 31.5466 9.98575 31.1497 9.98575C30.7528 9.98575 30.3882 9.86705 30.0559 9.62963C29.7236 9.39221 29.442 9.05508 29.2113 8.61823C28.9805 8.18139 28.8005 7.65907 28.6713 7.05128C28.5421 6.434 28.4775 5.75024 28.4775 5ZM30.1943 5.02849C30.1943 5.50332 30.2174 5.93542 30.2636 6.32479C30.3097 6.71415 30.3743 7.05128 30.4574 7.33618C30.5405 7.61159 30.6374 7.82526 30.7482 7.97721C30.8682 8.12916 30.9974 8.20513 31.1358 8.20513C31.2743 8.20513 31.3989 8.12916 31.5097 7.97721C31.6297 7.82526 31.7266 7.61159 31.8004 7.33618C31.8835 7.05128 31.9481 6.71415 31.9943 6.32479C32.0404 5.93542 32.0635 5.50332 32.0635 5.02849C32.0635 4.55366 32.0404 4.12156 31.9943 3.73219C31.9481 3.33333 31.8835 2.9962 31.8004 2.7208C31.7266 2.44539 31.6297 2.23172 31.5097 2.07977C31.3989 1.92783 31.2743 1.85185 31.1358 1.85185C30.9974 1.85185 30.8682 1.92783 30.7482 2.07977C30.6374 2.23172 30.5405 2.44539 30.4574 2.7208C30.3743 2.9962 30.3097 3.33333 30.2636 3.73219C30.2174 4.12156 30.1943 4.55366 30.1943 5.02849Z" fill="#FAFAFA"/>
<path d="M39.5124 5.05698C39.5124 5.38936 39.5078 5.74549 39.4986 6.12536C39.4986 6.49573 39.4755 6.8661 39.4294 7.23647C39.3924 7.59734 39.3232 7.94397 39.2217 8.27635C39.1202 8.60874 38.9678 8.90313 38.7648 9.15954C38.5709 9.40646 38.3171 9.60589 38.0033 9.75783C37.6894 9.90978 37.3017 9.98575 36.8402 9.98575C36.2033 9.98575 35.7049 9.87179 35.3449 9.64387C34.9941 9.41595 34.731 9.09307 34.5557 8.67521C34.3895 8.24786 34.288 7.73504 34.251 7.13675C34.2234 6.53846 34.2095 5.87369 34.2095 5.14245V0H35.9125V5.05698C35.9218 5.64577 35.9587 6.16809 36.0233 6.62393C36.051 6.82336 36.0879 7.01804 36.1341 7.20798C36.1802 7.38841 36.2356 7.55461 36.3002 7.70655C36.3741 7.849 36.4525 7.96771 36.5356 8.06268C36.6279 8.14815 36.7294 8.19088 36.8402 8.19088C36.9787 8.19088 37.0941 8.14815 37.1864 8.06268C37.2879 7.96771 37.371 7.849 37.4356 7.70655C37.5094 7.55461 37.5648 7.38841 37.6017 7.20798C37.6479 7.01804 37.6848 6.82336 37.7125 6.62393C37.7679 6.16809 37.791 5.64577 37.7817 5.05698V0.0142448H39.5124V5.05698Z" fill="#FAFAFA"/>
<path d="M43.9308 0.0142448C43.94 0.0142448 43.9446 0.109212 43.9446 0.299146C43.9446 0.479582 43.9446 0.679013 43.9446 0.897436C43.9446 1.16334 43.94 1.46249 43.9308 1.79487C43.6446 1.79487 43.3539 1.82336 43.0585 1.88034C42.7723 1.92783 42.5139 2.00855 42.2831 2.12251C42.0616 2.22697 41.877 2.35518 41.7293 2.50712C41.5908 2.65907 41.5216 2.83476 41.5216 3.03419C41.5216 3.20513 41.5816 3.35233 41.7016 3.47578C41.8308 3.59924 41.9831 3.7227 42.1585 3.84615C42.3431 3.96961 42.5416 4.10731 42.7539 4.25926C42.9754 4.40171 43.1739 4.57265 43.3492 4.77208C43.5339 4.97151 43.6862 5.21368 43.8062 5.49858C43.9354 5.78348 44 6.1301 44 6.53846C44 7.14625 43.8892 7.66857 43.6677 8.10541C43.4554 8.53276 43.16 8.88889 42.7816 9.17379C42.4123 9.44919 41.9785 9.65337 41.4801 9.78632C40.9816 9.91928 40.4555 9.98575 39.9016 9.98575V8.20513C40.0678 8.20513 40.2847 8.17664 40.5524 8.11966C40.8201 8.06268 41.0785 7.96771 41.3278 7.83476C41.5862 7.7018 41.8078 7.52612 41.9924 7.30769C42.177 7.08927 42.2647 6.81861 42.2554 6.49573C42.2554 6.33428 42.1954 6.19658 42.0754 6.08262C41.9554 5.95916 41.8031 5.84046 41.6185 5.7265C41.4431 5.60304 41.2539 5.47483 41.0508 5.34188C40.8478 5.19943 40.6539 5.02849 40.4693 4.82906C40.2939 4.62013 40.1463 4.37322 40.0263 4.08832C39.9155 3.80342 39.8601 3.45204 39.8601 3.03419C39.8601 2.59734 39.9801 2.19373 40.2201 1.82336C40.4693 1.45299 40.7878 1.13485 41.1755 0.868946C41.5631 0.603039 41.997 0.394112 42.477 0.242166C42.9662 0.0902184 43.4508 0.0142448 43.9308 0.0142448Z" fill="#FAFAFA"/>
</svg>
