<svg xmlns="http://www.w3.org/2000/svg" aria-hidden="true" style="position:absolute;width:0;height:0;overflow:hidden"><defs><symbol id="icon-arrow-right" viewBox="0 0 32 32"><path d="M10.453 9.88 16.56 16l-6.107 6.12 1.88 1.88 8-8-8-8-1.88 1.88z"/></symbol><symbol id="icon-arrow-left" viewBox="0 0 24 32"><path d="M21.76 3.76 9.547 16 21.76 28.24 18 32 2 16 18 0l3.76 3.76z"/></symbol><symbol id="icon-close" viewBox="0 0 32 32"><path d="m18.121 16 5.938-5.938a1.501 1.501 0 1 0-2.121-2.125l-5.937 5.937-5.938-5.938a1.501 1.501 0 0 0-2.571 1.057c0 .418.171.796.446 1.068l5.938 5.938-5.938 5.938c-.272.272-.44.648-.44 1.063s.168.791.44 1.063c.272.272.648.44 1.063.44s.791-.168 1.063-.44l5.938-5.938 5.938 5.938a1.503 1.503 0 0 0 2.126-2.126l-5.941-5.938z"/></symbol><symbol id="icon-close" viewBox="0 0 32 32"><path fill="none" stroke="#fafafa" stroke-linecap="round" stroke-linejoin="round" stroke-width="2.286" d="M24 8 8 24M8 8l16 16" style="stroke:var(--color1, #fafafa)"/></symbol><symbol id="icon-arrow-down" viewBox="0 0 32 32"><path d="M16 19.967c-.178 0-.35-.033-.517-.1s-.306-.156-.416-.267l-6.133-6.133c-.244-.244-.367-.556-.367-.933s.122-.689.367-.933c.244-.244.556-.367.933-.367s.689.122.933.367l5.2 5.2 5.2-5.2c.244-.244.556-.367.933-.367s.689.122.933.367c.244.244.367.556.367.933s-.122.689-.367.933L16.933 19.6c-.133.133-.278.228-.433.284s-.322.084-.5.083z"/></symbol><symbol id="icon-twitter" viewBox="0 0 32 32"><path d="M20.4 7.4h-.001a3.867 3.867 0 0 0-3.866 3.792v.004l-.037 2.1a.8.8 0 0 1-.911.777l.004.001-2.081-.283c-2.739-.373-5.363-1.635-7.88-3.732-.797 4.413.76 7.471 4.511 9.829l2.329 1.464a.8.8 0 0 1 .047 1.322l-.002.002-2.123 1.551c1.263.079 2.461.023 3.456-.175 6.291-1.256 10.473-5.989 10.473-13.797 0-.637-1.349-2.855-3.92-2.855zm-6.533 3.747a6.535 6.535 0 0 1 11.179-4.474l.001.001c.948-.007 1.755.233 3.559-.86-.447 2.187-.667 3.136-1.619 4.441 0 10.189-6.263 15.144-12.617 16.412-4.357.869-10.693-.559-12.509-2.455.925-.072 4.685-.476 6.859-2.067-1.839-1.212-9.157-5.519-4.348-17.097 2.257 2.636 4.547 4.431 6.867 5.383 1.544.633 1.923.62 2.631.717l-.001-.001z"/></symbol><symbol id="icon-facebook" viewBox="0 0 18 32"><path d="M14.45 5.602h2.924V.655a40.727 40.727 0 0 0-4.262-.218c-4.231 0-7.124 2.582-7.124 7.311v4.076H1.212v5.538h4.776v14.187h5.724V17.362h4.76l.716-5.538h-5.476V8.293c0-1.633.436-2.691 2.738-2.691z"/></symbol><symbol id="icon-search" viewBox="0 0 32 32"><path d="M14 22a8 8 0 0 0 0-16 8 8 0 0 0 0 16zm8.427-1.459 4.773 4.773a1.333 1.333 0 1 1-1.886 1.884l-4.773-4.773A10.6 10.6 0 0 1 14 24.666c-5.891 0-10.667-4.776-10.667-10.667S8.109 3.332 14 3.332s10.667 4.776 10.667 10.667a10.62 10.62 0 0 1-2.258 6.564l.018-.024z"/></symbol></defs></svg>