<svg xmlns="http://www.w3.org/2000/svg" aria-hidden="true" style="position:absolute;width:0;height:0;overflow:hidden"><defs>
<symbol id="icon-arrow-right" viewBox="0 0 32 32"><path d="M10.453 9.88 16.56 16l-6.107 6.12 1.88 1.88 8-8-8-8-1.88 1.88z"/></symbol>
<symbol id="icon-arrow-left" viewBox="0 0 24 32"><path d="M21.76 3.76 9.547 16 21.76 28.24 18 32 2 16 18 0l3.76 3.76z"/></symbol>
<symbol id="icon-close" viewBox="0 0 32 32"><path d="m18.121 16 5.938-5.938a1.501 1.501 0 1 0-2.121-2.125l-5.937 5.937-5.938-5.938a1.501 1.501 0 0 0-2.571 1.057c0 .418.171.796.446 1.068l5.938 5.938-5.938 5.938c-.272.272-.44.648-.44 1.063s.168.791.44 1.063c.272.272.648.44 1.063.44s.791-.168 1.063-.44l5.938-5.938 5.938 5.938a1.503 1.503 0 0 0 2.126-2.126l-5.941-5.938z"/></symbol>
<symbol id="icon-close" viewBox="0 0 32 32"><path fill="none" stroke="#fafafa" stroke-linecap="round" stroke-linejoin="round" stroke-width="2.286" d="M24 8 8 24M8 8l16 16" style="stroke:var(--color1, #fafafa)"/></symbol>
<symbol id="icon-arrow-down" viewBox="0 0 32 32"><path d="M16 19.967c-.178 0-.35-.033-.517-.1s-.306-.156-.416-.267l-6.133-6.133c-.244-.244-.367-.556-.367-.933s.122-.689.367-.933c.244-.244.556-.367.933-.367s.689.122.933.367l5.2 5.2 5.2-5.2c.244-.244.556-.367.933-.367s.689.122.933.367c.244.244.367.556.367.933s-.122.689-.367.933L16.933 19.6c-.133.133-.278.228-.433.284s-.322.084-.5.083z"/></symbol>
<symbol id="icon-twitter" viewBox="0 0 32 32"><path d="M20.4 7.4h-.001a3.867 3.867 0 0 0-3.866 3.792v.004l-.037 2.1a.8.8 0 0 1-.911.777l.004.001-2.081-.283c-2.739-.373-5.363-1.635-7.88-3.732-.797 4.413.76 7.471 4.511 9.829l2.329 1.464a.8.8 0 0 1 .047 1.322l-.002.002-2.123 1.551c1.263.079 2.461.023 3.456-.175 6.291-1.256 10.473-5.989 10.473-13.797 0-.637-1.349-2.855-3.92-2.855zm-6.533 3.747a6.535 6.535 0 0 1 11.179-4.474l.001.001c.948-.007 1.755.233 3.559-.86-.447 2.187-.667 3.136-1.619 4.441 0 10.189-6.263 15.144-12.617 16.412-4.357.869-10.693-.559-12.509-2.455.925-.072 4.685-.476 6.859-2.067-1.839-1.212-9.157-5.519-4.348-17.097 2.257 2.636 4.547 4.431 6.867 5.383 1.544.633 1.923.62 2.631.717l-.001-.001z"/></symbol>
<symbol id="icon-facebook" viewBox="0 0 18 32"><path d="M14.45 5.602h2.924V.655a40.727 40.727 0 0 0-4.262-.218c-4.231 0-7.124 2.582-7.124 7.311v4.076H1.212v5.538h4.776v14.187h5.724V17.362h4.76l.716-5.538h-5.476V8.293c0-1.633.436-2.691 2.738-2.691z"/></symbol>
<symbol id="icon-search" viewBox="0 0 32 32"><path d="M14 22a8 8 0 0 0 0-16 8 8 0 0 0 0 16zm8.427-1.459 4.773 4.773a1.333 1.333 0 1 1-1.886 1.884l-4.773-4.773A10.6 10.6 0 0 1 14 24.666c-5.891 0-10.667-4.776-10.667-10.667S8.109 3.332 14 3.332s10.667 4.776 10.667 10.667a10.62 10.62 0 0 1-2.258 6.564l.018-.024z"/></symbol><symbol id="icon-arrow1" viewBox="0 0 34 32">
<path d="M25.588 15.206l-10.314 10.313-1.097-1.097 10.313-10.313h-10.313v-1.552h12.962v12.962h-1.551v-10.313z"></path></symbol>
  
<symbol id="icon-instagram" viewBox="0 0 32 32">
<path d="M23.983 6.229c-0.354 0-0.701 0.105-0.996 0.302s-0.524 0.477-0.66 0.804c-0.136 0.327-0.171 0.688-0.102 1.035s0.24 0.667 0.491 0.918c0.251 0.251 0.57 0.421 0.917 0.49s0.708 0.034 1.035-0.102c0.328-0.136 0.607-0.365 0.804-0.66s0.302-0.641 0.302-0.996c0-0.475-0.189-0.931-0.525-1.267s-0.792-0.525-1.267-0.525zM30.852 9.843c-0.029-1.239-0.261-2.465-0.687-3.629-0.38-0.996-0.971-1.898-1.732-2.643-0.739-0.765-1.643-1.353-2.643-1.717-1.161-0.439-2.388-0.676-3.629-0.702-1.583-0.090-2.091-0.090-6.152-0.090s-4.57 0-6.152 0.090c-1.241 0.026-2.468 0.263-3.629 0.702-0.998 0.368-1.901 0.955-2.643 1.717-0.765 0.739-1.353 1.643-1.717 2.643-0.439 1.161-0.676 2.388-0.702 3.629-0.090 1.583-0.090 2.091-0.090 6.153s0 4.57 0.090 6.152c0.026 1.241 0.263 2.468 0.702 3.629 0.365 1 0.952 1.904 1.717 2.643 0.742 0.762 1.645 1.349 2.643 1.717 1.161 0.439 2.388 0.676 3.629 0.702 1.583 0.090 2.091 0.090 6.152 0.090s4.57 0 6.152-0.090c1.241-0.026 2.468-0.263 3.629-0.702 1-0.365 1.904-0.952 2.643-1.717 0.765-0.743 1.356-1.645 1.732-2.643 0.426-1.164 0.658-2.39 0.687-3.629 0-1.583 0.090-2.091 0.090-6.152s0-4.57-0.090-6.153zM28.164 21.969c-0.011 0.948-0.183 1.887-0.508 2.778-0.238 0.65-0.621 1.237-1.12 1.717-0.484 0.493-1.070 0.876-1.717 1.12-0.891 0.325-1.83 0.497-2.778 0.508-1.493 0.075-2.046 0.090-5.973 0.090s-4.48 0-5.973-0.090c-0.984 0.018-1.964-0.133-2.897-0.448-0.619-0.257-1.178-0.638-1.643-1.12-0.496-0.48-0.874-1.068-1.105-1.717-0.365-0.903-0.567-1.864-0.597-2.837 0-1.493-0.090-2.046-0.090-5.973s0-4.48 0.090-5.973c0.007-0.969 0.184-1.929 0.523-2.837 0.263-0.63 0.666-1.192 1.18-1.643 0.454-0.513 1.014-0.921 1.643-1.195 0.91-0.328 1.87-0.5 2.837-0.508 1.493 0 2.046-0.090 5.973-0.090s4.48 0 5.973 0.090c0.948 0.011 1.887 0.183 2.778 0.508 0.679 0.252 1.288 0.661 1.777 1.195 0.489 0.459 0.872 1.020 1.12 1.643 0.332 0.909 0.504 1.869 0.508 2.837 0.075 1.493 0.090 2.046 0.090 5.973s-0.015 4.48-0.090 5.973zM16.008 8.335c-1.514 0.003-2.994 0.455-4.252 1.298s-2.237 2.041-2.815 3.441c-0.578 1.4-0.727 2.94-0.43 4.425s1.028 2.849 2.1 3.919c1.072 1.070 2.437 1.798 3.923 2.092s3.025 0.142 4.424-0.439c1.399-0.58 2.595-1.562 3.436-2.822s1.29-2.74 1.29-4.255c0.002-1.008-0.195-2.006-0.58-2.937s-0.951-1.777-1.664-2.489c-0.713-0.712-1.56-1.276-2.492-1.659s-1.931-0.579-2.939-0.575zM16.008 20.969c-0.983 0-1.945-0.292-2.763-0.838s-1.455-1.323-1.832-2.232c-0.376-0.909-0.475-1.909-0.283-2.873s0.665-1.851 1.361-2.546c0.695-0.695 1.582-1.169 2.546-1.361s1.965-0.093 2.873 0.283 1.685 1.014 2.232 1.832c0.546 0.818 0.838 1.779 0.838 2.763 0 0.653-0.129 1.3-0.379 1.903s-0.616 1.152-1.078 1.613c-0.462 0.462-1.010 0.828-1.613 1.078s-1.25 0.379-1.903 0.379z"></path>

<symbol id="icon-arrow" viewBox="0 0 32 32">
<path stroke-linejoin="miter" stroke-linecap="butt" stroke-miterlimit="4" stroke-width="0.4706" d="M27.453 7.096l-23.963 23.963-2.549-2.549 23.963-23.963h-23.963v-3.605h30.118v30.118h-3.605v-23.963z"></path>
</symbol>

<svg aria-hidden="true" style="position: absolute; width: 0; height: 0; overflow: hidden;" version="1.1" xmlns="http://www.w3.org/2000/svg" xmlns:xlink="http://www.w3.org/1999/xlink">
<defs>
<symbol id="search" viewBox="0 0 24 24">
<path d="M16.041 15.856c-0.034 0.026-0.067 0.055-0.099 0.087s-0.060 0.064-0.087 0.099c-1.258 1.213-2.969 1.958-4.855 1.958-1.933 0-3.682-0.782-4.95-2.050s-2.050-3.017-2.050-4.95 0.782-3.682 2.050-4.95 3.017-2.050 4.95-2.050 3.682 0.782 4.95 2.050 2.050 3.017 2.050 4.95c0 1.886-0.745 3.597-1.959 4.856zM21.707 20.293l-3.675-3.675c1.231-1.54 1.968-3.493 1.968-5.618 0-2.485-1.008-4.736-2.636-6.364s-3.879-2.636-6.364-2.636-4.736 1.008-6.364 2.636-2.636 3.879-2.636 6.364 1.008 4.736 2.636 6.364 3.879 2.636 6.364 2.636c2.125 0 4.078-0.737 5.618-1.968l3.675 3.675c0.391 0.391 1.024 0.391 1.414 0s0.391-1.024 0-1.414z"></path>
</symbol>
</defs>
</svg>
<symbol id="icon-logo" viewBox="0 0 196 32">
<path fill="#ed1d24" style="fill: var(--color1, #ed1d24)" d="M0 1h94v30h-94v-30z"></path>
<path fill="#fafafa" style="fill: var(--color2, #fafafa)" d="M4 26.972v-19.943h4.431l1.606 10.256 1.578-10.256h4.514v19.972h-3.6v-9.63l-1.578 9.601h-1.855l-1.578-9.516v9.516h-3.517z"></path>
<path fill="#fafafa" style="fill: var(--color2, #fafafa)" d="M23.941 7.028l2.935 19.943h-3.517l-0.388-3.077h-2.714l-0.415 3.077h-3.461l2.908-19.943h4.652zM22.612 20.704l-0.997-8.376-0.941 8.376h1.938z"></path>
<path fill="#fafafa" style="fill: var(--color2, #fafafa)" d="M30.975 7.028c0.646 0 1.255 0.104 1.828 0.313 0.591 0.209 1.117 0.541 1.578 0.997 0.461 0.437 0.84 1.007 1.135 1.709 0.314 0.703 0.517 1.557 0.609 2.564 0.129 1.235 0.092 2.27-0.111 3.105-0.185 0.817-0.415 1.472-0.692 1.966-0.314 0.608-0.692 1.083-1.135 1.424l2.298 7.863h-3.545l-1.689-6.695-0.775 0.142v6.553h-3.489l0.028-19.943h3.96zM30.477 16.886c0.425-0.038 0.775-0.142 1.052-0.313 0.277-0.19 0.508-0.427 0.692-0.712s0.314-0.608 0.388-0.969c0.074-0.361 0.111-0.731 0.111-1.111 0-0.399-0.037-0.788-0.111-1.168-0.074-0.399-0.194-0.75-0.36-1.054-0.166-0.323-0.397-0.579-0.692-0.769-0.277-0.19-0.637-0.285-1.080-0.285v6.382z"></path>
<path fill="#fafafa" style="fill: var(--color2, #fafafa)" d="M39.136 7.028l1.551 12.023 1.634-12.023h3.489l-3.074 19.943h-4.098l-3.101-19.943h3.6z"></path>
<path fill="#fafafa" style="fill: var(--color2, #fafafa)" d="M46.029 26.972v-19.943h6.507v3.533h-2.935v4.501h2.963v3.704h-3.129v4.501h3.157v3.704h-6.563z"></path>
<path fill="#fafafa" style="fill: var(--color2, #fafafa)" d="M57.114 7v16.382h2.991v3.618h-6.424v-19.972l3.434-0.028z"></path>
<path fill="#fafafa" style="fill: var(--color2, #fafafa)" d="M60.955 17c0-1.5 0.129-2.858 0.388-4.074 0.258-1.235 0.618-2.289 1.080-3.162s1.025-1.548 1.689-2.023 1.394-0.712 2.188-0.712c0.794 0 1.514 0.237 2.16 0.712 0.665 0.475 1.228 1.149 1.689 2.023s0.821 1.928 1.080 3.162c0.259 1.216 0.388 2.574 0.388 4.074s-0.129 2.868-0.388 4.103c-0.258 1.216-0.618 2.26-1.080 3.134s-1.025 1.548-1.689 2.023c-0.646 0.475-1.366 0.712-2.16 0.712s-1.523-0.238-2.188-0.712c-0.665-0.475-1.228-1.149-1.689-2.023s-0.822-1.918-1.080-3.134c-0.258-1.235-0.388-2.602-0.388-4.103zM64.389 17.057c0 0.95 0.046 1.814 0.139 2.593s0.221 1.453 0.388 2.023c0.166 0.551 0.36 0.978 0.582 1.282 0.24 0.304 0.498 0.456 0.775 0.456s0.526-0.152 0.748-0.456c0.24-0.304 0.434-0.731 0.581-1.282 0.166-0.57 0.295-1.244 0.388-2.023s0.138-1.643 0.138-2.593-0.046-1.814-0.138-2.593c-0.092-0.798-0.222-1.472-0.388-2.023-0.148-0.551-0.341-0.978-0.581-1.282-0.222-0.304-0.471-0.456-0.748-0.456s-0.535 0.152-0.775 0.456c-0.222 0.304-0.415 0.731-0.582 1.282s-0.295 1.225-0.388 2.023c-0.092 0.779-0.139 1.643-0.139 2.593z"></path>
<path fill="#fafafa" style="fill: var(--color2, #fafafa)" d="M83.025 17.114c0 0.665-0.009 1.377-0.028 2.137 0 0.741-0.046 1.481-0.138 2.222-0.074 0.722-0.212 1.415-0.415 2.080s-0.508 1.253-0.914 1.766c-0.388 0.494-0.895 0.893-1.523 1.197s-1.403 0.456-2.326 0.456c-1.274 0-2.271-0.228-2.991-0.684-0.702-0.456-1.228-1.102-1.578-1.937-0.332-0.855-0.535-1.88-0.609-3.077-0.055-1.197-0.083-2.526-0.083-3.989v-10.285h3.406v10.114c0.019 1.178 0.092 2.222 0.222 3.134 0.055 0.399 0.129 0.788 0.222 1.168 0.092 0.361 0.203 0.693 0.332 0.997 0.148 0.285 0.305 0.522 0.471 0.712 0.185 0.171 0.388 0.256 0.609 0.256 0.277 0 0.508-0.086 0.692-0.256 0.203-0.19 0.369-0.427 0.498-0.712 0.148-0.304 0.258-0.636 0.332-0.997 0.092-0.38 0.166-0.769 0.222-1.168 0.111-0.912 0.157-1.956 0.138-3.134v-10.085h3.461v10.085z"></path>
<path fill="#fafafa" style="fill: var(--color2, #fafafa)" d="M91.862 7.028c0.018 0 0.028 0.19 0.028 0.57 0 0.361 0 0.76 0 1.197 0 0.532-0.009 1.13-0.028 1.795-0.572 0-1.154 0.057-1.745 0.171-0.572 0.095-1.089 0.256-1.551 0.484-0.443 0.209-0.812 0.465-1.108 0.769-0.277 0.304-0.415 0.655-0.415 1.054 0 0.342 0.12 0.636 0.36 0.883 0.258 0.247 0.563 0.494 0.914 0.741 0.369 0.247 0.766 0.522 1.191 0.826 0.443 0.285 0.84 0.627 1.191 1.026 0.369 0.399 0.674 0.883 0.914 1.453 0.258 0.57 0.388 1.263 0.388 2.080 0 1.215-0.222 2.26-0.665 3.134-0.425 0.855-1.015 1.567-1.772 2.137-0.739 0.551-1.606 0.959-2.603 1.225s-2.049 0.399-3.157 0.399v-3.561c0.332 0 0.766-0.057 1.302-0.171s1.052-0.304 1.551-0.57c0.517-0.266 0.96-0.617 1.329-1.054s0.545-0.978 0.526-1.624c0-0.323-0.12-0.598-0.36-0.826-0.24-0.247-0.545-0.484-0.914-0.712-0.351-0.247-0.729-0.503-1.135-0.769-0.406-0.285-0.794-0.627-1.163-1.026-0.351-0.418-0.646-0.912-0.886-1.481-0.222-0.57-0.332-1.273-0.332-2.108 0-0.874 0.24-1.681 0.72-2.422 0.498-0.741 1.135-1.377 1.911-1.909s1.643-0.95 2.603-1.254c0.978-0.304 1.948-0.456 2.908-0.456z"></path>
<path fill="#fafafa" style="fill: var(--color2, #fafafa)" d="M107.409 7.028l2.877 19.943h-3.447l-0.38-3.077h-2.66l-0.407 3.077h-3.392l2.85-19.943h4.559zM106.106 20.704l-0.977-8.376-0.923 8.376h1.9z"></path>
<path fill="#fafafa" style="fill: var(--color2, #fafafa)" d="M113.624 7c0.868 0 1.619 0.171 2.253 0.513s1.176 0.798 1.628 1.368c0.452 0.57 0.823 1.235 1.113 1.994 0.289 0.741 0.516 1.51 0.678 2.308s0.271 1.605 0.326 2.422c0.072 0.798 0.109 1.538 0.109 2.222 0 1.519-0.154 2.802-0.461 3.846-0.289 1.045-0.669 1.899-1.14 2.564-0.452 0.665-0.932 1.187-1.438 1.567-0.905 0.665-1.927 1.045-3.067 1.14h-3.338l0.054-19.943h3.284zM113.678 23.923c0 0 0.063-0.009 0.19-0.028s0.29-0.085 0.489-0.199c0.217-0.133 0.443-0.332 0.678-0.598 0.253-0.266 0.479-0.646 0.678-1.14 0.217-0.494 0.389-1.111 0.516-1.852 0.145-0.76 0.217-1.69 0.217-2.792 0-0.285-0.009-0.655-0.027-1.111s-0.063-0.94-0.136-1.453c-0.054-0.513-0.145-1.026-0.271-1.538s-0.299-0.978-0.516-1.396c-0.199-0.418-0.452-0.75-0.76-0.997-0.307-0.266-0.678-0.399-1.113-0.399l0.054 13.504z"></path>
<path fill="#fafafa" style="fill: var(--color2, #fafafa)" d="M124.129 7.028l1.52 12.023 1.601-12.023h3.419l-3.012 19.943h-4.017l-3.039-19.943h3.528z"></path>
<path fill="#fafafa" style="fill: var(--color2, #fafafa)" d="M130.884 26.972v-19.943h6.378v3.533h-2.877v4.501h2.904v3.704h-3.067v4.501h3.094v3.704h-6.432z"></path>
<path fill="#fafafa" style="fill: var(--color2, #fafafa)" d="M138.356 26.972v-19.943h3.392l2.904 10.313v-10.313h3.474v19.943h-3.474l-2.931-9.516v9.544l-3.365-0.028z"></path>
<path fill="#fafafa" style="fill: var(--color2, #fafafa)" d="M159.57 7.028v3.618h-3.419v16.325h-3.338v-16.325h-3.664v-3.618h10.421z"></path>
<path fill="#fafafa" style="fill: var(--color2, #fafafa)" d="M171.382 17.114c0 0.665-0.009 1.377-0.027 2.137 0 0.741-0.045 1.481-0.136 2.222-0.072 0.722-0.208 1.415-0.407 2.080s-0.498 1.253-0.896 1.766c-0.38 0.494-0.877 0.893-1.493 1.197s-1.375 0.456-2.28 0.456c-1.248 0-2.225-0.228-2.931-0.684-0.688-0.456-1.203-1.102-1.547-1.937-0.326-0.855-0.525-1.88-0.597-3.077-0.054-1.197-0.081-2.526-0.081-3.989v-10.285h3.338v10.114c0.018 1.178 0.091 2.222 0.217 3.134 0.054 0.399 0.127 0.788 0.217 1.168 0.091 0.361 0.199 0.693 0.326 0.997 0.145 0.285 0.298 0.522 0.461 0.712 0.181 0.171 0.38 0.256 0.597 0.256 0.271 0 0.498-0.086 0.678-0.256 0.199-0.19 0.362-0.427 0.489-0.712 0.145-0.304 0.253-0.636 0.326-0.997 0.090-0.38 0.163-0.769 0.217-1.168 0.108-0.912 0.154-1.956 0.136-3.134v-10.085h3.392v10.085z"></path>
<path fill="#fafafa" style="fill: var(--color2, #fafafa)" d="M176.080 7.028c0.633 0 1.23 0.104 1.791 0.313 0.579 0.209 1.095 0.541 1.547 0.997 0.452 0.437 0.823 1.007 1.113 1.709 0.308 0.703 0.507 1.557 0.597 2.564 0.127 1.235 0.090 2.27-0.109 3.105-0.181 0.817-0.407 1.472-0.678 1.966-0.308 0.608-0.678 1.083-1.113 1.424l2.252 7.863h-3.474l-1.656-6.695-0.76 0.142v6.553h-3.419l0.027-19.943h3.881zM175.592 16.886c0.416-0.038 0.76-0.142 1.031-0.313 0.271-0.19 0.498-0.427 0.679-0.712s0.307-0.608 0.38-0.969 0.109-0.731 0.109-1.111c0-0.399-0.036-0.788-0.109-1.168-0.072-0.399-0.19-0.75-0.353-1.054-0.163-0.323-0.389-0.579-0.678-0.769-0.271-0.19-0.624-0.285-1.058-0.285v6.382z"></path>
<path fill="#fafafa" style="fill: var(--color2, #fafafa)" d="M180.55 26.972v-19.943h6.378v3.533h-2.877v4.501h2.904v3.704h-3.067v4.501h3.094v3.704h-6.432z"></path>
<path fill="#fafafa" style="fill: var(--color2, #fafafa)" d="M195.864 7.028c0.018 0 0.027 0.19 0.027 0.57 0 0.361 0 0.76 0 1.197 0 0.532-0.009 1.13-0.027 1.795-0.561 0-1.131 0.057-1.71 0.171-0.561 0.095-1.067 0.256-1.52 0.484-0.434 0.209-0.796 0.465-1.086 0.769-0.271 0.304-0.407 0.655-0.407 1.054 0 0.342 0.118 0.636 0.353 0.883 0.253 0.247 0.552 0.494 0.896 0.741 0.362 0.247 0.751 0.522 1.167 0.826 0.434 0.285 0.823 0.627 1.167 1.026 0.362 0.399 0.66 0.883 0.896 1.453 0.253 0.57 0.38 1.263 0.38 2.080 0 1.215-0.217 2.26-0.651 3.134-0.416 0.855-0.995 1.567-1.737 2.137-0.724 0.551-1.574 0.959-2.551 1.225s-2.008 0.399-3.094 0.399v-3.561c0.326 0 0.751-0.057 1.275-0.171s1.031-0.304 1.52-0.57c0.507-0.266 0.941-0.617 1.303-1.054s0.534-0.978 0.516-1.624c0-0.323-0.118-0.598-0.353-0.826-0.235-0.247-0.534-0.484-0.896-0.712-0.344-0.247-0.715-0.503-1.113-0.769-0.398-0.285-0.778-0.627-1.14-1.026-0.344-0.418-0.633-0.912-0.868-1.481-0.217-0.57-0.326-1.273-0.326-2.108 0-0.874 0.235-1.681 0.706-2.422 0.488-0.741 1.113-1.377 1.873-1.909s1.61-0.95 2.551-1.254c0.959-0.304 1.909-0.456 2.85-0.456z"></path>
<path fill="#fafafa" style="fill: var(--color2, #fafafa)" d="M194 3h-92v-2h92v2z"></path>
<path fill="#fafafa" style="fill: var(--color2, #fafafa)" d="M194 31h-92v-2h92v2z"></path>
</symbol>


</symbol>
</symbol></defs></svg>