<svg xmlns="http://www.w3.org/2000/svg" aria-hidden="true" style="position:absolute;width:0;height:0;overflow:hidden"><defs>
<symbol id="icon-arrow-right" viewBox="0 0 32 32"><path d="M10.453 9.88 16.56 16l-6.107 6.12 1.88 1.88 8-8-8-8-1.88 1.88z"/></symbol>
<symbol id="icon-arrow-left" viewBox="0 0 24 32"><path d="M21.76 3.76 9.547 16 21.76 28.24 18 32 2 16 18 0l3.76 3.76z"/></symbol>
<symbol id="icon-close" viewBox="0 0 32 32"><path d="m18.121 16 5.938-5.938a1.501 1.501 0 1 0-2.121-2.125l-5.937 5.937-5.938-5.938a1.501 1.501 0 0 0-2.571 1.057c0 .418.171.796.446 1.068l5.938 5.938-5.938 5.938c-.272.272-.44.648-.44 1.063s.168.791.44 1.063c.272.272.648.44 1.063.44s.791-.168 1.063-.44l5.938-5.938 5.938 5.938a1.503 1.503 0 0 0 2.126-2.126l-5.941-5.938z"/></symbol>
<symbol id="icon-close" viewBox="0 0 32 32"><path fill="none" stroke="#fafafa" stroke-linecap="round" stroke-linejoin="round" stroke-width="2.286" d="M24 8 8 24M8 8l16 16" style="stroke:var(--color1, #fafafa)"/></symbol>
<symbol id="icon-arrow-down" viewBox="0 0 32 32"><path d="M16 19.967c-.178 0-.35-.033-.517-.1s-.306-.156-.416-.267l-6.133-6.133c-.244-.244-.367-.556-.367-.933s.122-.689.367-.933c.244-.244.556-.367.933-.367s.689.122.933.367l5.2 5.2 5.2-5.2c.244-.244.556-.367.933-.367s.689.122.933.367c.244.244.367.556.367.933s-.122.689-.367.933L16.933 19.6c-.133.133-.278.228-.433.284s-.322.084-.5.083z"/></symbol>
<symbol id="icon-twitter" viewBox="0 0 32 32"><path d="M20.4 7.4h-.001a3.867 3.867 0 0 0-3.866 3.792v.004l-.037 2.1a.8.8 0 0 1-.911.777l.004.001-2.081-.283c-2.739-.373-5.363-1.635-7.88-3.732-.797 4.413.76 7.471 4.511 9.829l2.329 1.464a.8.8 0 0 1 .047 1.322l-.002.002-2.123 1.551c1.263.079 2.461.023 3.456-.175 6.291-1.256 10.473-5.989 10.473-13.797 0-.637-1.349-2.855-3.92-2.855zm-6.533 3.747a6.535 6.535 0 0 1 11.179-4.474l.001.001c.948-.007 1.755.233 3.559-.86-.447 2.187-.667 3.136-1.619 4.441 0 10.189-6.263 15.144-12.617 16.412-4.357.869-10.693-.559-12.509-2.455.925-.072 4.685-.476 6.859-2.067-1.839-1.212-9.157-5.519-4.348-17.097 2.257 2.636 4.547 4.431 6.867 5.383 1.544.633 1.923.62 2.631.717l-.001-.001z"/></symbol>
<symbol id="icon-facebook" viewBox="0 0 18 32"><path d="M14.45 5.602h2.924V.655a40.727 40.727 0 0 0-4.262-.218c-4.231 0-7.124 2.582-7.124 7.311v4.076H1.212v5.538h4.776v14.187h5.724V17.362h4.76l.716-5.538h-5.476V8.293c0-1.633.436-2.691 2.738-2.691z"/></symbol>
<symbol id="icon-search" viewBox="0 0 32 32"><path d="M14 22a8 8 0 0 0 0-16 8 8 0 0 0 0 16zm8.427-1.459 4.773 4.773a1.333 1.333 0 1 1-1.886 1.884l-4.773-4.773A10.6 10.6 0 0 1 14 24.666c-5.891 0-10.667-4.776-10.667-10.667S8.109 3.332 14 3.332s10.667 4.776 10.667 10.667a10.62 10.62 0 0 1-2.258 6.564l.018-.024z"/></symbol><symbol id="icon-arrow1" viewBox="0 0 34 32">
<path d="M25.588 15.206l-10.314 10.313-1.097-1.097 10.313-10.313h-10.313v-1.552h12.962v12.962h-1.551v-10.313z"></path></symbol>
<symbol id="icon-instagram" viewBox="0 0 32 32">
<path d="M23.983 6.229c-0.354 0-0.701 0.105-0.996 0.302s-0.524 0.477-0.66 0.804c-0.136 0.327-0.171 0.688-0.102 1.035s0.24 0.667 0.491 0.918c0.251 0.251 0.57 0.421 0.917 0.49s0.708 0.034 1.035-0.102c0.328-0.136 0.607-0.365 0.804-0.66s0.302-0.641 0.302-0.996c0-0.475-0.189-0.931-0.525-1.267s-0.792-0.525-1.267-0.525zM30.852 9.843c-0.029-1.239-0.261-2.465-0.687-3.629-0.38-0.996-0.971-1.898-1.732-2.643-0.739-0.765-1.643-1.353-2.643-1.717-1.161-0.439-2.388-0.676-3.629-0.702-1.583-0.090-2.091-0.090-6.152-0.090s-4.57 0-6.152 0.090c-1.241 0.026-2.468 0.263-3.629 0.702-0.998 0.368-1.901 0.955-2.643 1.717-0.765 0.739-1.353 1.643-1.717 2.643-0.439 1.161-0.676 2.388-0.702 3.629-0.090 1.583-0.090 2.091-0.090 6.153s0 4.57 0.090 6.152c0.026 1.241 0.263 2.468 0.702 3.629 0.365 1 0.952 1.904 1.717 2.643 0.742 0.762 1.645 1.349 2.643 1.717 1.161 0.439 2.388 0.676 3.629 0.702 1.583 0.090 2.091 0.090 6.152 0.090s4.57 0 6.152-0.090c1.241-0.026 2.468-0.263 3.629-0.702 1-0.365 1.904-0.952 2.643-1.717 0.765-0.743 1.356-1.645 1.732-2.643 0.426-1.164 0.658-2.39 0.687-3.629 0-1.583 0.090-2.091 0.090-6.152s0-4.57-0.090-6.153zM28.164 21.969c-0.011 0.948-0.183 1.887-0.508 2.778-0.238 0.65-0.621 1.237-1.12 1.717-0.484 0.493-1.070 0.876-1.717 1.12-0.891 0.325-1.83 0.497-2.778 0.508-1.493 0.075-2.046 0.090-5.973 0.090s-4.48 0-5.973-0.090c-0.984 0.018-1.964-0.133-2.897-0.448-0.619-0.257-1.178-0.638-1.643-1.12-0.496-0.48-0.874-1.068-1.105-1.717-0.365-0.903-0.567-1.864-0.597-2.837 0-1.493-0.090-2.046-0.090-5.973s0-4.48 0.090-5.973c0.007-0.969 0.184-1.929 0.523-2.837 0.263-0.63 0.666-1.192 1.18-1.643 0.454-0.513 1.014-0.921 1.643-1.195 0.91-0.328 1.87-0.5 2.837-0.508 1.493 0 2.046-0.090 5.973-0.090s4.48 0 5.973 0.090c0.948 0.011 1.887 0.183 2.778 0.508 0.679 0.252 1.288 0.661 1.777 1.195 0.489 0.459 0.872 1.020 1.12 1.643 0.332 0.909 0.504 1.869 0.508 2.837 0.075 1.493 0.090 2.046 0.090 5.973s-0.015 4.48-0.090 5.973zM16.008 8.335c-1.514 0.003-2.994 0.455-4.252 1.298s-2.237 2.041-2.815 3.441c-0.578 1.4-0.727 2.94-0.43 4.425s1.028 2.849 2.1 3.919c1.072 1.070 2.437 1.798 3.923 2.092s3.025 0.142 4.424-0.439c1.399-0.58 2.595-1.562 3.436-2.822s1.29-2.74 1.29-4.255c0.002-1.008-0.195-2.006-0.58-2.937s-0.951-1.777-1.664-2.489c-0.713-0.712-1.56-1.276-2.492-1.659s-1.931-0.579-2.939-0.575zM16.008 20.969c-0.983 0-1.945-0.292-2.763-0.838s-1.455-1.323-1.832-2.232c-0.376-0.909-0.475-1.909-0.283-2.873s0.665-1.851 1.361-2.546c0.695-0.695 1.582-1.169 2.546-1.361s1.965-0.093 2.873 0.283 1.685 1.014 2.232 1.832c0.546 0.818 0.838 1.779 0.838 2.763 0 0.653-0.129 1.3-0.379 1.903s-0.616 1.152-1.078 1.613c-0.462 0.462-1.010 0.828-1.613 1.078s-1.25 0.379-1.903 0.379z"></path>
<symbol id="icon-arrow" viewBox="0 0 32 32">
<path stroke-linejoin="miter" stroke-linecap="butt" stroke-miterlimit="4" stroke-width="0.4706" d="M27.453 7.096l-23.963 23.963-2.549-2.549 23.963-23.963h-23.963v-3.605h30.118v30.118h-3.605v-23.963z"></path>
<svg aria-hidden="true" style="position: absolute; width: 0; height: 0; overflow: hidden;" version="1.1" xmlns="http://www.w3.org/2000/svg" xmlns:xlink="http://www.w3.org/1999/xlink">
<defs>
<symbol id="search" viewBox="0 0 24 24">
<path d="M16.041 15.856c-0.034 0.026-0.067 0.055-0.099 0.087s-0.060 0.064-0.087 0.099c-1.258 1.213-2.969 1.958-4.855 1.958-1.933 0-3.682-0.782-4.95-2.050s-2.050-3.017-2.050-4.95 0.782-3.682 2.050-4.95 3.017-2.050 4.95-2.050 3.682 0.782 4.95 2.050 2.050 3.017 2.050 4.95c0 1.886-0.745 3.597-1.959 4.856zM21.707 20.293l-3.675-3.675c1.231-1.54 1.968-3.493 1.968-5.618 0-2.485-1.008-4.736-2.636-6.364s-3.879-2.636-6.364-2.636-4.736 1.008-6.364 2.636-2.636 3.879-2.636 6.364 1.008 4.736 2.636 6.364 3.879 2.636 6.364 2.636c2.125 0 4.078-0.737 5.618-1.968l3.675 3.675c0.391 0.391 1.024 0.391 1.414 0s0.391-1.024 0-1.414z"></path>
</symbol>
</defs>
</svg>
</symbol>
</symbol></defs></svg>